<?xml version="1.0" encoding="UTF-8" standalone="no"?>
<svg
   id="xPressxd"
   data-name="xPressxd"
   width="310"
   height="110"
   viewBox="0 0 310 110"
   version="1.1"
   sodipodi:docname="xpressxd.svg"
   inkscape:version="1.3 (0e150ed6c4, 2023-07-21)"
   xmlns:inkscape="http://www.inkscape.org/namespaces/inkscape"
   xmlns:sodipodi="http://sodipodi.sourceforge.net/DTD/sodipodi-0.dtd"
   xmlns="http://www.w3.org/2000/svg"
   xmlns:svg="http://www.w3.org/2000/svg"
   xmlns:rdf="http://www.w3.org/1999/02/22-rdf-syntax-ns#"
   xmlns:cc="http://creativecommons.org/ns#"
   xmlns:dc="http://purl.org/dc/elements/1.1/">
  <title
     id="title3">xPressxd Brand Logo</title>
  <sodipodi:namedview
     id="namedview1"
     pagecolor="#505050"
     bordercolor="#ffffff"
     borderopacity="1"
     inkscape:showpageshadow="0"
     inkscape:pageopacity="0"
     inkscape:pagecheckerboard="1"
     inkscape:deskcolor="#0d2430"
     inkscape:zoom="2.8284271"
     inkscape:cx="95.812969"
     inkscape:cy="71.241008"
     inkscape:window-width="2560"
     inkscape:window-height="1377"
     inkscape:window-x="-8"
     inkscape:window-y="263"
     inkscape:window-maximized="1"
     showborder="true"
     showguides="true">
    <sodipodi:guide
       position="197,44.75"
       orientation="0,-1"
       id="guide7"
       inkscape:locked="false" />
  </sodipodi:namedview>
  <defs
     id="defs1">
    <style
       id="style1">&#10;      .cls-1 {&#10;        fill: #de841d;&#10;      }&#10;&#10;  .cls-2 {&#10;display:none;        fill: #e0f1f0;&#10;      }&#10;    .cls-3 {&#10;        fill:#52D9E7;&#10;      }&#10;</style>
  </defs>
  <path
    id="X"
    class="cls-3"
    d="M41.408,58.943L59.316,31.355H50.1l-13.514,21-13.086-21H12.441l18.752,29.6L10.427,93H19.79L35.847,67.958,51.5,93H62.551Z" />
  <path
    id="P"
    class="cls-1"
    d="M 34.460938 8.6425781 L 34.460938 42.482422 L 36.826172 45.978516 L 44.898438 33.568359 L 44.898438 17.371094 L 64.796875 17.371094 C 69.883137 17.371094 73.767581 18.998702 76.453125 22.253906 C 79.138669 25.509112 80.482422 29.210942 80.482422 33.361328 C 80.482422 38.203445 78.975907 42.109703 75.964844 45.080078 C 72.953773 48.009763 68.987948 49.474609 64.064453 49.474609 L 51.082031 49.474609 L 45.375 58.033203 L 46.964844 58.033203 L 53.933594 58.142578 L 65.101562 58.142578 C 72.832675 58.142578 79.079109 55.802404 83.839844 51.123047 C 88.641272 46.44369 91.041016 40.522779 91.041016 33.361328 C 91.041016 26.932298 88.843748 21.215815 84.449219 16.210938 C 80.054696 11.16537 73.238597 8.6425781 64.001953 8.6425781 L 34.460938 8.6425781 z M 35.511719 73.542969 L 34.460938 75.146484 L 34.460938 91.955078 L 44.898438 91.955078 L 44.898438 87.576172 L 35.511719 73.542969 z "
    inkscape:label="P" />
  <path
    id="Write_-_Learn_-_Inspire"
    data-name="Write - Learn - Inspire"
    class="cls-2"
    d="M87.617,76.309l-3.155,13.7-3.868-13.7H78.87l-3.589,13.7-3.387-13.7h-2.2l4.294,16.914h2.179L79.593,80.1l3.692,13.123h2.122l4.071-16.914H87.617Zm6.232,10.3a4.88,4.88,0,0,1,1.14-3.16,3.426,3.426,0,0,1,2.677-1.2h0.4V80.385a7.69,7.69,0,0,0-.768-0.05,3.3,3.3,0,0,0-1.865.613,6.278,6.278,0,0,0-1.815,2.683V80.708H91.9V93.223h1.945V86.606Zm6.332-10.3v2.168h2.094V76.309h-2.094Zm0.087,4.4V93.223h1.946V80.708h-1.946Zm9.988,11.326a1.743,1.743,0,0,1-2.008-1.936V82.232h2.8V80.708h-2.8V77.387l-1.809.174-0.087,3.147h-2.218v1.524h2.218v7.542q0,3.8,3.631,3.8a13.832,13.832,0,0,0,1.784-.136V91.9a9.535,9.535,0,0,1-1.511.136h0Zm8.537-.074a3.872,3.872,0,0,1-2.515-.991q-1.19-.991-1.19-3.829h9.1a7.632,7.632,0,0,0-1.531-5.081,5,5,0,0,0-3.946-1.7,5.32,5.32,0,0,0-4.139,1.842,7.879,7.879,0,0,0-.062,9.563,5.262,5.262,0,0,0,4.151,1.8,5.577,5.577,0,0,0,3.383-1.051,5.093,5.093,0,0,0,1.933-2.654l-1.809-.372a3.438,3.438,0,0,1-3.371,2.466h0Zm-3.618-6.27a4.312,4.312,0,0,1,1.134-2.8,3.3,3.3,0,0,1,2.46-1.041,2.99,2.99,0,0,1,1.846.576,3.186,3.186,0,0,1,1.09,1.394,5.414,5.414,0,0,1,.347,1.871h-6.877Zm16.7,0.434v1.512h5.6V86.123h-5.6Zm16.605,5.242V76.309h-2.169V93.223H156.3V91.364h-7.819Zm14.981,0.595a3.877,3.877,0,0,1-2.516-.991q-1.19-.991-1.189-3.829h9.095a7.632,7.632,0,0,0-1.53-5.081,5,5,0,0,0-3.947-1.7,5.321,5.321,0,0,0-4.139,1.842,7.879,7.879,0,0,0-.062,9.563,5.265,5.265,0,0,0,4.152,1.8,5.579,5.579,0,0,0,3.383-1.051,5.1,5.1,0,0,0,1.933-2.654l-1.81-.372a3.436,3.436,0,0,1-3.37,2.466h0Zm-3.618-6.27a4.306,4.306,0,0,1,1.133-2.8,3.3,3.3,0,0,1,2.46-1.041,2.993,2.993,0,0,1,1.847.576,3.193,3.193,0,0,1,1.09,1.394,5.438,5.438,0,0,1,.347,1.871h-6.877Zm21.462,5.105V85.478q0-2.825-1.084-3.972a4.907,4.907,0,0,0-3.675-1.146q-4.869,0-5.526,3.457l1.8,0.31q0.483-2.255,3.444-2.255a4.16,4.16,0,0,1,1.958.4,1.916,1.916,0,0,1,.973,1.06,7.2,7.2,0,0,1,.229,2.15q-1.14-.049-1.66-0.05-3.867,0-5.477,1.223a3.758,3.758,0,0,0-1.611,3.121,3.641,3.641,0,0,0,1.127,2.681,4.4,4.4,0,0,0,3.235,1.117,4.507,4.507,0,0,0,4.386-2.6q0.112,1.661.223,2.255h1.921a10.6,10.6,0,0,1-.26-2.429h0Zm-1.847-3.009a4.386,4.386,0,0,1-1.133,3.006,3.7,3.7,0,0,1-2.894,1.279,2.8,2.8,0,0,1-1.989-.646,2.069,2.069,0,0,1-.687-1.565,2.423,2.423,0,0,1,1.276-2.211,7.052,7.052,0,0,1,3.581-.758q0.619,0,1.809.074,0.037,0.472.037,0.82h0Zm7.683-1.179a4.885,4.885,0,0,1,1.14-3.16,3.428,3.428,0,0,1,2.677-1.2h0.4V80.385a7.689,7.689,0,0,0-.768-0.05,3.3,3.3,0,0,0-1.865.613,6.28,6.28,0,0,0-1.815,2.683V80.708H185.2V93.223h1.945V86.606Zm16.283-.62a9.893,9.893,0,0,0-.366-3.271,3.848,3.848,0,0,0-1.351-1.63,3.909,3.909,0,0,0-2.385-.725,4.5,4.5,0,0,0-3.953,2.652v-2.3h-1.809V93.223h1.946V86.358a4.68,4.68,0,0,1,1.009-3.135,3.151,3.151,0,0,1,2.5-1.19,2.588,2.588,0,0,1,1.834.706,3.245,3.245,0,0,1,.756,2.441v8.042h1.822V85.986Zm8.661,0.136v1.512h5.6V86.123h-5.6Zm16.556-9.814h-2.119V93.223h2.119V76.309Zm13.915,9.678a9.928,9.928,0,0,0-.365-3.271,3.848,3.848,0,0,0-1.351-1.63,3.913,3.913,0,0,0-2.385-.725,4.5,4.5,0,0,0-3.953,2.652v-2.3H232.7V93.223h1.945V86.358a4.681,4.681,0,0,1,1.01-3.135,3.15,3.15,0,0,1,2.5-1.19,2.588,2.588,0,0,1,1.834.706,3.245,3.245,0,0,1,.756,2.441v8.042h1.821V85.986Zm7.708,7.584a6.2,6.2,0,0,0,3.792-1.061,3.316,3.316,0,0,0,1.425-2.787q0-3.016-3.829-3.711l-2.441-.438q-1.946-.359-1.946-1.745a1.54,1.54,0,0,1,.762-1.368,3.557,3.557,0,0,1,1.952-.489,3.054,3.054,0,0,1,3.16,1.958l1.784-.384q-0.954-3.184-5.031-3.185a5.044,5.044,0,0,0-3.37,1.06,3.313,3.313,0,0,0-1.252,2.633,3.009,3.009,0,0,0,.917,2.292,4.813,4.813,0,0,0,2.466,1.165l2.638,0.5q2.145,0.4,2.145,1.869a1.727,1.727,0,0,1-.843,1.535,3.707,3.707,0,0,1-2.057.545q-3.3,0-3.915-2.367l-1.859.384q1.053,3.594,5.5,3.594h0Zm9.9-2.243a4.146,4.146,0,0,0,3.705,2.243,4.356,4.356,0,0,0,3.593-1.8,8.954,8.954,0,0,0,.039-9.557,4.271,4.271,0,0,0-7.523.921V80.708h-1.76V97.449h1.946V91.327Zm1.22-8.364a2.911,2.911,0,0,1,2.088-.9,2.754,2.754,0,0,1,2.367,1.283,6.341,6.341,0,0,1,.892,3.649,5.847,5.847,0,0,1-.985,3.854,2.952,2.952,0,0,1-2.261,1.115,3.124,3.124,0,0,1-2.119-.926,3.72,3.72,0,0,1-1.2-2.345V85.156A4.387,4.387,0,0,1,261.389,82.963Zm10.3-6.654v2.168h2.094V76.309h-2.094Zm0.087,4.4V93.223h1.945V80.708H271.78Zm7.769,5.9a4.88,4.88,0,0,1,1.14-3.16,3.427,3.427,0,0,1,2.677-1.2h0.4V80.385a7.689,7.689,0,0,0-.768-0.05,3.3,3.3,0,0,0-1.865.613,6.28,6.28,0,0,0-1.815,2.683V80.708H277.6V93.223h1.945V86.606Zm11.314,5.353a3.873,3.873,0,0,1-2.516-.991q-1.19-.991-1.19-3.829h9.1a7.632,7.632,0,0,0-1.531-5.081,5,5,0,0,0-3.946-1.7,5.32,5.32,0,0,0-4.139,1.842,7.879,7.879,0,0,0-.062,9.563,5.262,5.262,0,0,0,4.151,1.8,5.577,5.577,0,0,0,3.383-1.051,5.093,5.093,0,0,0,1.933-2.654l-1.809-.372a3.437,3.437,0,0,1-3.37,2.466h0Zm-3.619-6.27a4.312,4.312,0,0,1,1.134-2.8,3.3,3.3,0,0,1,2.46-1.041,2.99,2.99,0,0,1,1.846.576,3.2,3.2,0,0,1,1.091,1.394,5.438,5.438,0,0,1,.346,1.871h-6.877Z" />
  <path
    id="ress_d"
    class="cls-1"
    d="M 290.16211 10.0625 L 290.16211 29.636719 C 287.11811 25.24339 283.18904 23.046875 278.37305 23.046875 A 14.044 14.044 0 0 0 266.46289 29.1875 C 263.47156 33.280163 261.9759 38.398928 261.97656 44.544922 C 261.97656 50.558249 263.48844 55.532801 266.50977 59.466797 A 13.981 13.981 0 0 0 278.07617 65.365234 C 283.72083 65.365234 287.94977 62.706047 290.75977 57.386719 L 290.75977 64.255859 L 296.40039 64.255859 L 296.40039 10.064453 L 290.16797 10.064453 L 290.16211 10.0625 z M 113.50195 22.966797 A 10.58 10.58 0 0 0 107.52734 24.931641 C 105.58201 26.241639 103.64294 29.107348 101.71094 33.527344 L 101.71094 24.158203 L 96.232422 24.158203 L 96.232422 64.257812 L 102.4668 64.257812 L 102.4668 43.058594 L 102.4668 43.054688 A 15.626 15.626 0 0 1 106.11719 32.931641 A 10.977 10.977 0 0 1 114.69336 29.080078 L 115.96289 29.080078 L 115.96289 23.126953 A 24.626 24.626 0 0 0 113.50195 22.966797 z M 136.40039 23.046875 A 17.04 17.04 0 0 0 123.14062 28.947266 C 119.62063 32.880595 117.86133 38.039168 117.86133 44.423828 C 117.86133 50.676489 119.55408 55.729988 122.94141 59.583984 A 16.861 16.861 0 0 0 136.24219 65.365234 A 17.867 17.867 0 0 0 147.07812 62 A 16.324 16.324 0 0 0 153.27344 53.5 L 147.47266 52.308594 C 145.38133 57.575255 141.78249 60.208984 136.67383 60.208984 L 136.67773 60.205078 A 12.41 12.41 0 0 1 128.61914 57.029297 C 126.07914 54.911966 124.80926 50.822379 124.80859 44.761719 L 153.94727 44.761719 C 153.86793 37.536393 152.23421 32.110371 149.04688 28.484375 A 16.02 16.02 0 0 0 136.40039 23.046875 z M 172.31641 23.050781 C 167.79041 23.050781 164.18962 24.180695 161.51562 26.443359 A 10.619 10.619 0 0 0 157.50586 34.880859 A 9.636 9.636 0 0 0 160.44336 42.224609 A 15.429 15.429 0 0 0 168.34375 45.955078 L 176.79688 47.556641 C 181.37687 48.40264 183.6673 50.397639 183.66797 53.542969 A 5.534 5.534 0 0 1 180.96875 58.460938 A 11.893 11.893 0 0 1 174.37891 60.203125 C 167.33825 60.203125 163.1547 57.676422 161.83203 52.621094 L 155.87891 53.851562 C 158.12757 61.526888 164.00192 65.365234 173.50391 65.365234 L 173.51172 65.365234 C 178.56705 65.365234 182.61487 64.233461 185.6582 61.966797 A 10.618 10.618 0 0 0 190.22461 53.039062 C 190.22461 46.597736 186.13569 42.635056 177.95703 41.150391 L 170.13867 39.75 C 165.97934 38.983334 163.90039 37.118914 163.90039 34.15625 A 4.934 4.934 0 0 1 166.3418 29.773438 A 11.393 11.393 0 0 1 172.59375 28.207031 C 177.70174 28.207031 181.07613 30.298473 182.7168 34.480469 L 188.43359 33.25 C 186.3956 26.450007 181.02373 23.050781 172.31641 23.050781 z M 208.00195 23.052734 C 203.47596 23.052734 199.87517 24.184601 197.20117 26.447266 A 10.616 10.616 0 0 0 193.19141 34.882812 A 9.636 9.636 0 0 0 196.13086 42.226562 A 15.425 15.425 0 0 0 204.0293 45.958984 L 212.48242 47.558594 C 217.06242 48.404593 219.35285 50.401545 219.35352 53.546875 A 5.533 5.533 0 0 1 216.6543 58.462891 A 11.888 11.888 0 0 1 210.06445 60.207031 C 203.02446 60.207031 198.84286 57.678375 197.51953 52.623047 L 191.56445 53.855469 C 193.81445 61.530794 199.69008 65.367187 209.19141 65.367188 L 209.19336 65.365234 C 214.24802 65.365234 218.2978 64.233461 221.3418 61.966797 A 10.617 10.617 0 0 0 225.90625 53.039062 C 225.90625 46.597736 221.81666 42.635056 213.63867 41.150391 L 205.82031 39.75 C 201.66298 38.983334 199.58527 37.118867 199.58594 34.158203 A 4.932 4.932 0 0 1 202.02734 29.777344 A 11.393 11.393 0 0 1 208.2793 28.210938 C 213.38596 28.210938 216.76035 30.302379 218.40234 34.484375 L 224.11914 33.253906 C 222.07981 26.453913 216.70794 23.052734 208.00195 23.052734 z M 252.49023 24.154297 L 243.69922 37.816406 L 235.18945 24.158203 L 228 24.158203 L 228.00586 24.167969 L 235.19336 24.167969 L 243.70312 37.826172 L 252.49414 24.164062 L 258.48438 24.164062 L 258.49023 24.154297 L 252.49023 24.154297 z M 136.59961 27.810547 A 9.579 9.579 0 0 1 142.51367 29.65625 A 10.232 10.232 0 0 1 146.00781 34.121094 A 17.427 17.427 0 0 1 147.11914 40.117188 L 125.08594 40.117188 A 13.794 13.794 0 0 1 128.71875 31.144531 A 10.562 10.562 0 0 1 136.59961 27.810547 z M 279.44727 28.011719 A 10.348 10.348 0 0 1 286.94727 31.1875 A 11.354 11.354 0 0 1 290.16211 39.644531 L 290.16211 47.980469 A 12.3 12.3 0 0 1 286.82812 56.550781 A 10.16 10.16 0 0 1 279.12891 60.201172 A 8.6 8.6 0 0 1 271.56445 56 C 269.72445 53.194669 268.80402 49.105083 268.80469 43.732422 C 268.80469 38.757094 269.80469 34.893289 271.80469 32.140625 A 9.09 9.09 0 0 1 279.44727 28.011719 z M 246.84766 42.105469 L 246.8457 42.107422 L 260.59375 64.253906 L 260.5957 64.253906 L 246.84766 42.105469 z M 240.19922 43.412109 L 226.69141 64.253906 L 226.70117 64.253906 L 240.20312 43.419922 L 240.19922 43.412109 z "
    inkscape:label="ress d" />
  <path
    d="m 247.026,43.1325 11.648,-17.945 h -6 l -8.791,13.662 -8.511,-13.658 h -7.189 l 12.2,19.253 -13.508,20.842 h 6.09 l 10.444,-16.288 10.179,16.288 h 7.19 z"
    id="x"
    class="cls-3" />
  <metadata
     id="metadata3">
    <rdf:RDF>
      <cc:Work
         rdf:about="">
        <dc:title>xPressxd Brand Logo</dc:title>
        <dc:date>09/11/2023</dc:date>
        <dc:creator>
          <cc:Agent>
            <dc:title>Daniel Weeks</dc:title>
          </cc:Agent>
        </dc:creator>
        <dc:description>Brand logo for xPressxd</dc:description>
      </cc:Work>
    </rdf:RDF>
  </metadata>

</svg>
